<svg width="20" height="20" viewBox="0 0 20 20" fill="none" xmlns="http://www.w3.org/2000/svg">
<path d="M11.25 18.75H8.75C8.41848 18.75 8.10054 18.6183 7.86612 18.3839C7.6317 18.1495 7.5 17.8315 7.5 17.5V13.125C7.16848 13.125 6.85054 12.9933 6.61612 12.7589C6.3817 12.5245 6.25 12.2065 6.25 11.875V8.125C6.25 7.62772 6.44754 7.15081 6.79917 6.79918C7.15081 6.44755 7.62772 6.25 8.125 6.25H11.875C12.3723 6.25 12.8492 6.44755 13.2008 6.79918C13.5525 7.15081 13.75 7.62772 13.75 8.125V11.875C13.75 12.2065 13.6183 12.5245 13.3839 12.7589C13.1495 12.9933 12.8315 13.125 12.5 13.125V17.5C12.5 17.8315 12.3683 18.1495 12.1339 18.3839C11.8995 18.6183 11.5815 18.75 11.25 18.75ZM8.125 7.5C8.04149 7.49448 7.95777 7.50686 7.87944 7.53631C7.80111 7.56577 7.72997 7.61162 7.67079 7.67079C7.61162 7.72997 7.56577 7.80111 7.53631 7.87944C7.50686 7.95777 7.49448 8.0415 7.5 8.125V11.875H8.75V17.5H11.25V11.875H12.5V8.125C12.5055 8.0415 12.4931 7.95777 12.4637 7.87944C12.4342 7.80111 12.3884 7.72997 12.3292 7.67079C12.27 7.61162 12.1989 7.56577 12.1206 7.53631C12.0422 7.50686 11.9585 7.49448 11.875 7.5H8.125ZM10 5.625C9.50555 5.625 9.0222 5.47838 8.61107 5.20368C8.19995 4.92897 7.87952 4.53852 7.6903 4.08171C7.50108 3.62489 7.45157 3.12223 7.54804 2.63728C7.6445 2.15232 7.8826 1.70687 8.23223 1.35723C8.58186 1.0076 9.02732 0.769501 9.51227 0.673038C9.99723 0.576575 10.4999 0.626083 10.9567 0.815302C11.4135 1.00452 11.804 1.32495 12.0787 1.73608C12.3534 2.1472 12.5 2.63055 12.5 3.125C12.5 3.78804 12.2366 4.42393 11.7678 4.89277C11.2989 5.36161 10.663 5.625 10 5.625ZM10 1.875C9.75277 1.875 9.5111 1.94831 9.30554 2.08566C9.09998 2.22302 8.93976 2.41824 8.84515 2.64665C8.75054 2.87505 8.72579 3.12639 8.77402 3.36886C8.82225 3.61134 8.9413 3.83407 9.11612 4.00888C9.29093 4.1837 9.51366 4.30275 9.75614 4.35098C9.99861 4.39921 10.2499 4.37446 10.4784 4.27985C10.7068 4.18524 10.902 4.02503 11.0393 3.81946C11.1767 3.6139 11.25 3.37223 11.25 3.125C11.25 2.79348 11.1183 2.47554 10.8839 2.24112C10.6495 2.0067 10.3315 1.875 10 1.875Z" fill="#4A4A4A"/>
</svg>
