<svg width="29" height="29" viewBox="0 0 29 29" fill="none" xmlns="http://www.w3.org/2000/svg">
<path fill-rule="evenodd" clip-rule="evenodd" d="M9.96859 6.04163C9.96859 4.83986 10.446 3.68732 11.2958 2.83755C12.1455 1.98777 13.2981 1.51038 14.4998 1.51038C15.7016 1.51038 16.8541 1.98777 17.7039 2.83755C18.5537 3.68732 19.0311 4.83986 19.0311 6.04163V13.7121C19.0311 13.7991 19.0794 13.9296 19.222 14.0432C20.4429 15.0214 21.3298 16.3546 21.7603 17.8587C22.1909 19.3627 22.1436 20.9633 21.6253 22.4393C21.1069 23.9154 20.1429 25.194 18.8665 26.0985C17.5901 27.0031 16.0643 27.4889 14.4998 27.4889C12.9354 27.4889 11.4096 27.0031 10.1332 26.0985C8.85679 25.194 7.8928 23.9154 7.37442 22.4393C6.85603 20.9633 6.80882 19.3627 7.23933 17.8587C7.66983 16.3546 8.55679 15.0214 9.77767 14.0432C9.92025 13.9284 9.96859 13.7991 9.96859 13.7121V6.04163ZM14.4998 3.32288C13.7788 3.32288 13.0873 3.60931 12.5774 4.11918C12.0675 4.62904 11.7811 5.32057 11.7811 6.04163V13.7121C11.7811 14.4408 11.4065 15.0606 10.9111 15.457C9.98304 16.2003 9.30877 17.2135 8.98143 18.3566C8.65409 19.4997 8.68985 20.7162 9.08376 21.8381C9.47768 22.96 10.2103 23.9319 11.1804 24.6194C12.1505 25.307 13.3102 25.6763 14.4992 25.6763C15.6883 25.6763 16.848 25.307 17.8181 24.6194C18.7882 23.9319 19.5208 22.96 19.9147 21.8381C20.3086 20.7162 20.3444 19.4997 20.017 18.3566C19.6897 17.2135 19.0154 16.2003 18.0874 15.457C17.5932 15.0606 17.2186 14.442 17.2186 13.7121V6.04163C17.2186 5.32057 16.9321 4.62904 16.4223 4.11918C15.9124 3.60931 15.2209 3.32288 14.4998 3.32288ZM14.4998 5.13538C14.7402 5.13538 14.9707 5.23086 15.1407 5.40081C15.3106 5.57077 15.4061 5.80127 15.4061 6.04163V16.1155C16.343 16.3376 17.1656 16.8961 17.7178 17.6849C18.2701 18.4736 18.5134 19.4377 18.4015 20.394C18.2897 21.3504 17.8306 22.2323 17.1113 22.8724C16.392 23.5125 15.4627 23.8661 14.4998 23.8661C13.537 23.8661 12.6077 23.5125 11.8884 22.8724C11.1691 22.2323 10.7099 21.3504 10.5981 20.394C10.4863 19.4377 10.7296 18.4736 11.2818 17.6849C11.834 16.8961 12.6567 16.3376 13.5936 16.1155V6.04163C13.5936 5.80127 13.6891 5.57077 13.859 5.40081C14.029 5.23086 14.2595 5.13538 14.4998 5.13538ZM14.4998 17.8229C13.939 17.8229 13.4012 18.0457 13.0046 18.4422C12.608 18.8388 12.3853 19.3766 12.3853 19.9375C12.3853 20.4983 12.608 21.0361 13.0046 21.4327C13.4012 21.8293 13.939 22.052 14.4998 22.052C15.0607 22.052 15.5985 21.8293 15.9951 21.4327C16.3916 21.0361 16.6144 20.4983 16.6144 19.9375C16.6144 19.3766 16.3916 18.8388 15.9951 18.4422C15.5985 18.0457 15.0607 17.8229 14.4998 17.8229Z" fill="black"/>
</svg>
