<svg width="20" height="20" viewBox="0 0 20 20" fill="none" xmlns="http://www.w3.org/2000/svg">
<g clip-path="url(#clip0_179_486)">
<path d="M11.27 18.3408L11.4583 19.375H14.375L15.2083 14.7917H16.6667V12.2917C16.6668 11.5957 16.4732 10.9134 16.1077 10.3212C15.7421 9.72894 15.2189 9.25013 14.5967 8.93833M15.14 4.86C15.0492 4.48992 14.8672 4.14851 14.6104 3.86697C14.3536 3.58544 14.0304 3.37277 13.6702 3.24843C13.31 3.12409 12.9244 3.09203 12.5486 3.1552C12.1728 3.21836 11.8189 3.37473 11.5192 3.61M0.625 19.375L19.375 0.625M10.0292 9.97083C9.54682 9.35849 8.88564 8.91168 8.13757 8.69254C7.38951 8.4734 6.59174 8.49282 5.85523 8.7481C5.11871 9.00338 4.48006 9.48184 4.02808 10.1169C3.5761 10.752 3.33326 11.5122 3.33333 12.2917V14.7917H5.20833M5.39917 18.1358L5.625 19.375H8.54167L9.375 14.7917H10.8333V12.7025M7.08333 7.70833C7.69112 7.70833 8.27402 7.46689 8.70379 7.03712C9.13356 6.60735 9.375 6.02445 9.375 5.41667C9.375 4.80888 9.13356 4.22598 8.70379 3.79621C8.27402 3.36644 7.69112 3.125 7.08333 3.125C6.47555 3.125 5.89265 3.36644 5.46288 3.79621C5.03311 4.22598 4.79167 4.80888 4.79167 5.41667C4.79167 6.02445 5.03311 6.60735 5.46288 7.03712C5.89265 7.46689 6.47555 7.70833 7.08333 7.70833Z" stroke="#4A4A4A" stroke-linecap="round" stroke-linejoin="round"/>
</g>
<defs>
<clipPath id="clip0_179_486">
<rect width="20" height="20" fill="white"/>
</clipPath>
</defs>
</svg>
